<?xml version="1.0" encoding="UTF-8" standalone="no"?>
<svg
   xmlns:dc="http://purl.org/dc/elements/1.1/"
   xmlns:cc="http://creativecommons.org/ns#"
   xmlns:rdf="http://www.w3.org/1999/02/22-rdf-syntax-ns#"
   xmlns:svg="http://www.w3.org/2000/svg"
   xmlns="http://www.w3.org/2000/svg"
   xmlns:xlink="http://www.w3.org/1999/xlink"
   xmlns:sodipodi="http://sodipodi.sourceforge.net/DTD/sodipodi-0.dtd"
   xmlns:inkscape="http://www.inkscape.org/namespaces/inkscape"
   viewBox="0 0 48 48"
   version="1.1"
   id="svg4443"
   sodipodi:docname="WTU.svg"
   inkscape:version="0.92.2 (5c3e80d, 2017-08-06)"
   inkscape:export-filename="D:\Dropbox\bitcoins\Whalestreet.fr\WTU.png"
   inkscape:export-xdpi="400"
   inkscape:export-ydpi="400">
  <metadata
     id="metadata4447">
    <rdf:RDF>
      <cc:Work
         rdf:about="">
        <dc:format>image/svg+xml</dc:format>
        <dc:type
           rdf:resource="http://purl.org/dc/dcmitype/StillImage" />
        <dc:title />
      </cc:Work>
    </rdf:RDF>
  </metadata>
  <sodipodi:namedview
     pagecolor="#ffffff"
     bordercolor="#666666"
     borderopacity="1"
     objecttolerance="10"
     gridtolerance="10"
     guidetolerance="10"
     inkscape:pageopacity="0"
     inkscape:pageshadow="2"
     inkscape:window-width="1920"
     inkscape:window-height="1046"
     id="namedview4445"
     showgrid="false"
     inkscape:zoom="8"
     inkscape:cx="-3.9514158"
     inkscape:cy="36.745432"
     inkscape:window-x="-11"
     inkscape:window-y="-11"
     inkscape:window-maximized="1"
     inkscape:current-layer="svg4443" />
  <defs
     id="defs4177">
    <filter
       id="u">
      <feGaussianBlur
         stdDeviation=".57309"
         id="feGaussianBlur4074" />
    </filter>
    <filter
       id="e" />
    <filter
       id="r"
       x="-.05253"
       y="-.13713"
       width="1.1051"
       height="1.2742" />
    <linearGradient
       id="b">
      <stop
         stop-color="#f5e0a1"
         offset="0"
         id="stop4081" />
      <stop
         stop-color="#21150f"
         offset="1"
         id="stop4083" />
    </linearGradient>
    <linearGradient
       id="n"
       x1="37.233"
       x2="5.699"
       y1="38.121"
       y2="8.4203"
       gradientUnits="userSpaceOnUse"
       gradientTransform="matrix(26.81712,0,0,26.575696,-746.88349,-605.5724)">
      <stop
         offset="0"
         id="stop4086" />
      <stop
         stop-opacity="0"
         offset="1"
         id="stop4088" />
    </linearGradient>
    <linearGradient
       id="l"
       x1="26.668"
       x2="35.948"
       y1="20.673"
       y2="29.171"
       gradientUnits="userSpaceOnUse"
       gradientTransform="matrix(18.883134,0,0,18.293678,-537.0029,-421.99979)">
      <stop
         stop-color="#f1f2f3"
         offset="0"
         id="stop4091" />
      <stop
         stop-color="#aab7d2"
         offset="1"
         id="stop4093" />
    </linearGradient>
    <linearGradient
       id="q"
       x1="21.763"
       x2="33.312"
       y1="12.898"
       y2="45.946"
       gradientUnits="userSpaceOnUse"
       xlink:href="#b"
       gradientTransform="matrix(26.81712,0,0,26.575696,-746.88349,-605.5724)" />
    <linearGradient
       id="p"
       x1="21.485"
       x2="-28.003"
       y1="17.478"
       y2="-21.538"
       gradientUnits="userSpaceOnUse"
       xlink:href="#b"
       spreadMethod="reflect"
       gradientTransform="matrix(25.38053,0,0,24.94071,-715.27376,-578.29155)" />
    <linearGradient
       id="o"
       x1="30.287"
       x2="18.564"
       y1="25.256"
       y2="8.6684"
       gradientUnits="userSpaceOnUse"
       xlink:href="#b"
       gradientTransform="matrix(25.38053,0,0,24.94071,-715.27376,-578.29155)" />
    <linearGradient
       id="m"
       x1="45.224"
       x2=".68918"
       y1="34.836"
       y2="-4.8218"
       gradientUnits="userSpaceOnUse"
       xlink:href="#b"
       gradientTransform="matrix(18.883134,0,0,18.293678,-537.0029,-421.99979)" />
    <radialGradient
       id="f"
       cx="55.108"
       cy="33.524"
       r="13.889"
       gradientTransform="matrix(15.466634,-21.611457,10.883169,7.7892379,-1043.7825,1191.6487)"
       gradientUnits="userSpaceOnUse">
      <stop
         stop-opacity=".46053"
         offset="0"
         id="stop4165" />
      <stop
         stop-opacity="0"
         offset="1"
         id="stop4167" />
    </radialGradient>
    <radialGradient
       id="g"
       cx="27.577"
       cy="24.665"
       r="19.192"
       gradientTransform="matrix(0.88947,0,0,1,3.0482,0)"
       gradientUnits="userSpaceOnUse">
      <stop
         offset="0"
         id="stop4170" />
      <stop
         offset=".66265"
         id="stop4172" />
      <stop
         stop-opacity="0"
         offset="1"
         id="stop4174" />
    </radialGradient>
  </defs>
  <g
     id="g150"
     transform="matrix(0.04132704,0,0,0.04132704,25.892891,23.207589)">
    <path
       inkscape:connector-curvature="0"
       style="fill:url(#g);filter:url(#u)"
       id="path4179"
       d="m 46.669,24.665 a 19.092,19.092 0 1 1 -38.184,0 19.092,19.092 0 1 1 38.184,0 z"
       transform="matrix(29.773958,0,0,27.806716,-818.50973,-640.14608)" />
    <path
       inkscape:connector-curvature="0"
       style="fill:url(#q);stroke:url(#n);stroke-width:12.00578594"
       id="path4181"
       d="m 459.24324,19.115949 a 490.96781,499.88882 0 1 1 -981.93561,0 490.96781,499.88882 0 1 1 981.93561,0 z" />
    <path
       inkscape:connector-curvature="0"
       style="fill:url(#p);stroke:url(#o);stroke-width:11.30599499"
       id="path4183"
       d="m 426.24095,7.9647945 a 464.66674,469.13473 0 1 1 -929.33347,0 464.66674,469.13473 0 1 1 929.33347,0 z" />
    <path
       inkscape:connector-curvature="0"
       style="fill:url(#l);stroke:url(#m);stroke-width:3.75289893"
       id="path4185"
       d="m 312.2849,8.0114593 a 345.71241,344.10409 0 1 1 -691.42481,0 345.71241,344.10409 0 1 1 691.42481,0 z" />
    <path
       inkscape:connector-curvature="0"
       style="fill:url(#f);stroke-width:26.57562256"
       id="path4187"
       d="M 386.65255,-130.12722 A 183.21926,366.45336 35.589517 1 1 -39.870811,465.85191 183.21926,366.45336 35.589517 1 1 386.65255,-130.12722 Z" />
    <path
       style="fill:none;stroke:#000000;stroke-width:0.30000001;stroke-linecap:round;stroke-linejoin:round;stroke-opacity:0.78824002;filter:url(#e)"
       transform="matrix(23.903306,0,0,23.903306,-611.335,-530.79085)"
       inkscape:connector-curvature="0"
       id="path4189"
       d="m 22.342,10.164 -3.9307,16.51 c -0.04546,0.9172 -0.23737,1.4413 0.78615,2.3585" />
    <path
       style="fill:none;stroke:#ffffff;stroke-width:0.5;stroke-linecap:round;stroke-linejoin:round;filter:url(#r)"
       transform="matrix(23.903306,0,0,23.903306,-611.335,-530.79085)"
       inkscape:connector-curvature="0"
       id="path4197"
       d="m 14.873,12.719 c 0,0 2.9765,-0.58963 4.7169,-1.1793 1.7404,-0.58967 2.2447,-1.1793 2.2447,-1.1793" />
    <path
       style="fill:none;stroke:#000000;stroke-width:4.78069448;stroke-linecap:round;stroke-linejoin:round;stroke-opacity:0.63111004"
       inkscape:connector-curvature="0"
       id="path4201"
       d="m 145.72153,-316.64629 -10.63125,-7.61331 -9.37439,8.32271 3.39709,-13.30817 -10.20202,-7.08874 12.73058,-0.61175 3.06916,-12.70397 4.47082,12.9302 12.09889,-0.76278 -9.96759,8.60295 4.40841,12.23246 z" />
    <path
       style="fill:#f5e0a1;stroke:#ffede2;stroke-width:2.39037824;stroke-linecap:round;stroke-linejoin:round"
       inkscape:connector-curvature="0"
       id="path4203"
       d="m 140.53452,-319.4334 -10.63125,-7.61331 -9.37439,8.32269 3.39708,-13.30819 -10.20201,-7.08872 12.73058,-0.61176 3.06913,-12.70397 4.47084,12.93021 12.09889,-0.76279 -9.96759,8.60298 4.40842,12.23244 z" />
    <path
       style="fill:none;stroke:#000000;stroke-width:4.78069448;stroke-linecap:round;stroke-linejoin:round;stroke-opacity:0.63111004"
       inkscape:connector-curvature="0"
       id="path4205"
       d="m 178.30173,-298.56821 -10.63122,-7.61332 -9.37442,8.32271 3.39709,-13.30818 -10.20202,-7.08872 12.73058,-0.61176 3.06916,-12.70397 4.47082,12.93018 12.09889,-0.76276 -9.96759,8.60295 4.40843,12.23246 z" />
    <path
       style="fill:#f5e0a1;stroke:#ffede2;stroke-width:2.39037824;stroke-linecap:round;stroke-linejoin:round"
       inkscape:connector-curvature="0"
       id="path4207"
       d="m 173.11471,-301.35533 -10.63122,-7.61332 -9.37441,8.3227 3.39708,-13.30818 -10.20201,-7.08873 12.73058,-0.61175 3.06915,-12.70397 4.47082,12.93019 12.09889,-0.76278 -9.96759,8.60298 4.40844,12.23244 z" />
    <path
       style="fill:none;stroke:#000000;stroke-width:4.78069448;stroke-linecap:round;stroke-linejoin:round;stroke-opacity:0.63111004"
       inkscape:connector-curvature="0"
       id="path4209"
       d="m 208.18088,-274.66491 -10.63125,-7.61333 -9.37439,8.32273 3.39708,-13.30819 -10.20204,-7.08873 12.7306,-0.61175 3.06913,-12.70398 4.47083,12.9302 12.09892,-0.76278 -9.9676,8.60296 4.40842,12.23243 z" />
    <path
       style="fill:#f5e0a1;stroke:#ffede2;stroke-width:2.39037824;stroke-linecap:round;stroke-linejoin:round"
       inkscape:connector-curvature="0"
       id="path4211"
       d="m 202.99384,-277.45202 -10.63123,-7.61333 -9.37439,8.32269 3.39709,-13.30815 -10.20204,-7.08873 12.7306,-0.61175 3.06914,-12.70398 4.47081,12.93018 12.09892,-0.76278 -9.9676,8.60295 4.40842,12.23246 z" />
    <path
       style="fill:none;stroke:#000000;stroke-width:4.78069448;stroke-linecap:round;stroke-linejoin:round;stroke-opacity:0.63111004"
       inkscape:connector-curvature="0"
       id="path4213"
       d="m 241.04791,-252.25557 -10.63123,-7.61331 -9.37441,8.32271 3.39708,-13.30817 -10.20201,-7.08874 12.73057,-0.6117 3.06917,-12.70398 4.47081,12.93018 12.0989,-0.76276 -9.9676,8.60299 4.40844,12.23244 z" />
    <path
       style="fill:#f5e0a1;stroke:#ffede2;stroke-width:2.39037824;stroke-linecap:round;stroke-linejoin:round"
       inkscape:connector-curvature="0"
       id="path4215"
       d="m 235.86089,-255.04268 -10.63122,-7.61331 -9.37442,8.32269 3.39708,-13.30815 -10.202,-7.08876 12.73057,-0.61168 3.06916,-12.704 4.47083,12.9302 12.09888,-0.76276 -9.96759,8.60297 4.40844,12.23243 z" />
    <path
       style="fill:none;stroke:#000000;stroke-width:4.78069448;stroke-linecap:round;stroke-linejoin:round;stroke-opacity:0.63111004"
       inkscape:connector-curvature="0"
       id="path4217"
       d="m 272.40903,-214.90665 -10.63122,-7.61332 -9.37439,8.32272 3.39709,-13.30818 -10.20204,-7.08874 12.7306,-0.61168 3.06913,-12.70399 4.47083,12.93017 12.0989,-0.76275 -9.96758,8.60298 4.40841,12.23244 z" />
    <path
       style="fill:#f5e0a1;stroke:#ffede2;stroke-width:2.39037824;stroke-linecap:round;stroke-linejoin:round"
       inkscape:connector-curvature="0"
       id="path4219"
       d="m 267.24594,-217.69376 -10.63125,-7.61332 -9.37439,8.32269 3.39708,-13.30815 -10.202,-7.08876 12.73057,-0.61168 3.06913,-12.704 4.47082,12.9302 12.09892,-0.76275 -9.96759,8.60296 4.40841,12.23246 z" />
    <path
       style="fill:none;stroke:#000000;stroke-width:4.78069448;stroke-linecap:round;stroke-linejoin:round;stroke-opacity:0.63111004"
       inkscape:connector-curvature="0"
       id="path4221"
       d="m 301.54716,-170.08556 -10.63123,-7.61333 -9.37438,8.32272 3.39708,-13.30818 -10.20204,-7.08872 12.73061,-0.61168 3.06913,-12.70401 4.47082,12.93018 12.09891,-0.76275 -9.96758,8.60298 4.4084,12.23244 z" />
    <path
       style="fill:#f5e0a1;stroke:#ffede2;stroke-width:2.39037824;stroke-linecap:round;stroke-linejoin:round"
       inkscape:connector-curvature="0"
       id="path4223"
       d="m 296.36015,-172.88223 -10.63122,-7.61332 -9.37439,8.32269 3.39708,-13.30818 -10.20204,-7.08872 12.7306,-0.61168 3.06913,-12.70401 4.47083,12.93021 12.09891,-0.76276 -9.96759,8.60296 4.40841,12.23244 z" />
    <path
       style="fill:#9d8e66;stroke:#000000;stroke-width:4.78069448;stroke-linecap:round;stroke-linejoin:round;stroke-opacity:0.63111004"
       inkscape:connector-curvature="0"
       id="path4225"
       d="m 312.74588,211.61438 -10.63122,-7.61333 -9.37441,8.32272 3.39708,-13.30818 -10.20204,-7.08873 12.73061,-0.61175 3.06915,-12.70398 4.4708,12.9302 12.09891,-0.76278 -9.96759,8.60295 4.40841,12.23247 z" />
    <path
       style="fill:#9d8e66;stroke:#d5ba7d;stroke-width:2.39037824;stroke-linecap:round;stroke-linejoin:round"
       inkscape:connector-curvature="0"
       id="path4227"
       d="m 307.58277,208.8416 -10.63123,-7.61332 -9.37441,8.3227 3.39708,-13.30819 -10.20204,-7.08869 12.7306,-0.61176 3.06917,-12.70397 4.47081,12.93017 12.0989,-0.76279 -9.9676,8.60299 4.40842,12.23244 z" />
    <path
       style="fill:#9d8e66;stroke:#000000;stroke-width:4.78069448;stroke-linecap:round;stroke-linejoin:round;stroke-opacity:0.63111004"
       inkscape:connector-curvature="0"
       id="path4231"
       d="m 281.38473,250.7919 -10.63122,-7.61332 -9.37442,8.3227 3.39712,-13.30819 -10.20204,-7.0887 12.73057,-0.61176 3.06916,-12.70396 4.47082,12.93016 12.09888,-0.76278 -9.96756,8.60299 4.4084,12.23244 z" />
    <path
       style="fill:#9d8e66;stroke:#d5ba7d;stroke-width:2.39037824;stroke-linecap:round;stroke-linejoin:round"
       inkscape:connector-curvature="0"
       id="path4233"
       d="m 276.22161,248.01911 -10.63122,-7.61332 -9.37439,8.32271 3.39709,-13.30817 -10.20204,-7.08873 12.73058,-0.61176 3.06915,-12.70397 4.47082,12.9302 12.09889,-0.7628 -9.96756,8.60297 4.40838,12.23244 z" />
    <path
       style="fill:#9d8e66;stroke:#000000;stroke-width:4.78069448;stroke-linecap:round;stroke-linejoin:round;stroke-opacity:0.63111004"
       inkscape:connector-curvature="0"
       id="path4235"
       d="m 252.24661,286.31222 -10.63123,-7.61332 -9.37442,8.32269 3.39711,-13.30818 -10.20204,-7.08872 12.73058,-0.61176 3.06915,-12.70397 4.47083,12.9302 12.09889,-0.76278 -9.96757,8.60295 4.40839,12.23246 z" />
    <path
       style="fill:#9d8e66;stroke:#d5ba7d;stroke-width:2.39037824;stroke-linecap:round;stroke-linejoin:round"
       inkscape:connector-curvature="0"
       id="path4237"
       d="m 247.05959,283.53943 -10.63123,-7.61332 -9.37441,8.32271 3.39711,-13.30817 -10.20203,-7.08874 12.73057,-0.61174 3.06916,-12.70398 4.47081,12.93018 12.09889,-0.76279 -9.96756,8.60298 4.40838,12.23244 z" />
    <path
       style="fill:#9d8e66;stroke:#000000;stroke-width:4.78069448;stroke-linecap:round;stroke-linejoin:round;stroke-opacity:0.63111004"
       inkscape:connector-curvature="0"
       id="path4239"
       d="m 220.12057,315.45034 -10.63123,-7.61333 -9.37442,8.32273 3.39711,-13.3082 -10.20204,-7.08872 12.73058,-0.61176 3.06915,-12.70395 4.47083,12.93017 12.09888,-0.76278 -9.96756,8.60296 4.40839,12.23246 z" />
    <path
       style="fill:#9d8e66;stroke:#d5ba7d;stroke-width:2.39037824;stroke-linecap:round;stroke-linejoin:round"
       inkscape:connector-curvature="0"
       id="path4241"
       d="m 214.95744,312.65365 -10.63122,-7.61331 -9.37442,8.32271 3.39712,-13.3082 -10.20204,-7.08873 12.73058,-0.61173 3.06915,-12.70396 4.47083,12.93016 12.09888,-0.76278 -9.96756,8.60297 4.40838,12.23246 z" />
    <path
       style="fill:#9d8e66;stroke:#000000;stroke-width:4.78069448;stroke-linecap:round;stroke-linejoin:round;stroke-opacity:0.63111004"
       inkscape:connector-curvature="0"
       id="path4243"
       d="m 188.75943,339.35364 -10.63122,-7.61332 -9.37441,8.32272 3.39708,-13.30818 -10.20201,-7.08874 12.73057,-0.61175 3.06916,-12.70396 4.47082,12.93019 12.09889,-0.7628 -9.96759,8.60298 4.40841,12.23245 z" />
    <path
       style="fill:#9d8e66;stroke:#d5ba7d;stroke-width:2.39037824;stroke-linecap:round;stroke-linejoin:round"
       inkscape:connector-curvature="0"
       id="path4245"
       d="m 183.57242,336.55695 -10.63122,-7.61331 -9.37442,8.32271 3.39709,-13.30818 -10.20204,-7.08872 12.7306,-0.61176 3.06915,-12.70397 4.4708,12.93019 12.09892,-0.76279 -9.96759,8.60297 4.40841,12.23245 z" />
    <path
       style="fill:#9d8e66;stroke:#000000;stroke-width:4.78069448;stroke-linecap:round;stroke-linejoin:round;stroke-opacity:0.63111004"
       inkscape:connector-curvature="0"
       id="path4247"
       d="m 156.63339,361.01004 -10.63122,-7.61333 -9.37441,8.32271 3.39708,-13.30817 -10.20204,-7.08873 12.7306,-0.61175 3.06916,-12.70397 4.4708,12.93019 12.09891,-0.76279 -9.96759,8.60298 4.40841,12.23244 z" />
    <path
       style="fill:#9d8e66;stroke:#d5ba7d;stroke-width:2.39037824;stroke-linecap:round;stroke-linejoin:round"
       inkscape:connector-curvature="0"
       id="path4249"
       d="m 151.44638,358.23725 -10.63123,-7.61332 -9.37441,8.32272 3.39709,-13.30818 -10.20204,-7.08874 12.7306,-0.61174 3.06916,-12.70397 4.47079,12.93019 12.09892,-0.76279 -9.96759,8.60297 4.40841,12.23245 z" />
    <path
       inkscape:connector-curvature="0"
       style="fill:#00ff00;fill-opacity:1;fill-rule:evenodd;stroke:none"
       d="m -19.155205,-182.79608 v -2.87936 l 0.15996,-2.87936 0.31993,-2.87936 0.31993,-2.87936 0.31993,-2.7194 0.47989,-2.71939 0.63986,-2.7194 0.63986,-2.55943 0.63986,-2.55943 0.79982,-2.55943 0.95979,-2.39947 0.95978,-2.2395 0.95979,-2.2395 1.11975,-2.2395 1.1197501,-2.07954 1.11975,-2.07954 1.27972,-1.7596 1.27972,-1.91958 1.43968,-1.59964 1.43968,-1.59965 1.43968,-1.59964 1.59963997,-1.27972 1.43968003,-1.27971 1.59964,-1.11975 1.75961,-1.11976 1.59965,-0.79982 1.75961,-0.79982 1.75961,-0.63986 1.7595999,-0.47989 1.91958,-0.47989 1.75961,-0.15997 1.91957,-0.15996 1.75961,0.15996 1.91957,0.15997 1.75961,0.47989 1.75961,0.47989 1.75961,0.63986 1.75961,0.79982 1.75961,0.79982 1.59964,1.11976 1.59965,1.11975 1.59964,1.27971 1.43968,1.27972 1.59965,1.59964 1.27971,1.59965 1.43968,1.59964 1.27972,1.91958 1.27971,1.7596 1.27972,2.07954 1.11975,2.07954 0.95979,2.2395 1.11975,2.2395 0.95978,2.2395 0.79983,2.39947 0.79982,2.55943 0.79982,2.55943 0.63986,2.55943 0.47989,2.7194 0.4799,2.71939 0.47989,2.7194 0.31993,2.87936 0.15996,2.87936 0.15997,2.87936 0.15996,2.87936 h 36.15197 v -5.91869 l -0.31993,-5.75872 -0.47989,-5.75872 -0.63986,-5.59875 -0.79982,-5.59876 -0.95979,-5.43878 -1.11975,-5.43879 -1.27972,-5.11887 -1.43968,-5.11886 -1.59964,-4.9589 -1.75961,-4.79893 -1.91958,-4.63897 -2.07953,-4.479 -2.07954,-4.31905 -2.2395,-4.15907 -2.39947,-3.99911 -2.55943,-3.83915 -2.7194,-3.67918 -2.71939,-3.35926 -2.87936,-3.19928 -2.87936,-3.03933 -3.03933,-2.71939 -3.19929,-2.55944 -3.19929,-2.2395 -3.19928,-2.07954 -3.35926,-1.7596 -3.51922,-1.59965 -3.51921,-1.27971 -3.51922,-0.95979 -3.67918,-0.79982 -3.67919,-0.4799 h -3.67918 -3.83915 l -3.6791799,0.4799 -3.51922,0.79982 -3.67918,0.95979 -3.51922,1.27971 -3.35925,1.59965 -3.35925,1.7596 -3.3592601,2.07954 -3.19929,2.2395 -3.19929,2.55944 -3.03932,2.71939 -2.87936,3.03933 -2.87936,3.19928 -2.7194,3.35926 -2.55943,3.67918 -2.55943,3.83915 -2.39947,3.99911 -2.2395,4.15907 -2.2395,4.31905 -1.91957,4.479 -1.91958,4.63897 -1.75961,4.79893 -1.59964,4.9589 -1.43968,5.11886 -1.27972,5.11887 -1.27971,5.43879 -0.95979,5.43878 -0.79982,5.59876 -0.63986,5.59875 -0.47989,5.75872 -0.15997,5.75872 -0.15996,5.91869 z"
       id="path4454" />
    <path
       inkscape:connector-curvature="0"
       style="fill:#00ff00;fill-opacity:1;fill-rule:evenodd;stroke:none"
       d="m -128.09099,-182.79608 v -2.87936 l 0.15996,-2.87936 0.15997,-2.87936 0.31993,-2.87936 0.47989,-2.7194 0.47989,-2.71939 0.4799,-2.7194 0.63985,-2.55943 0.79983,-2.55943 0.79982,-2.55943 0.79982,-2.39947 0.95979,-2.2395 1.11975,-2.2395 0.95979,-2.2395 1.27971,-2.07954 1.11975,-2.07954 1.27972,-1.7596 1.27971,-1.91958 1.43968,-1.59964 1.43968,-1.59965 1.43968,-1.59964 1.43968,-1.27972 1.59965,-1.27971 1.59964,-1.11975 1.59965,-1.11976 1.75961,-0.79982 1.7596,-0.79982 1.759605,-0.63986 1.75961,-0.47989 1.75961,-0.47989 1.91958,-0.15997 1.91957,-0.15996 1.75961,0.15996 1.91957,0.15997 1.75961,0.47989 1.75961,0.47989 1.75961,0.63986 1.75961,0.79982 1.59964,0.79982 1.75961,1.11976 1.59965,1.11975 1.59964,1.27971 1.43968,1.27972 1.43968,1.59964 1.43968,1.59965 1.43968,1.59964 1.27972,1.91958 1.27971,1.7596 1.11975,2.07954 1.11975,2.07954 1.11975,2.2395 1.11976,2.2395 0.79982,2.2395 0.95978,2.39947 0.79983,2.55943 0.63985,2.55943 0.79983,2.55943 0.47989,2.7194 0.47989,2.71939 0.4799,2.7194 0.31993,2.87936 0.15996,2.87936 0.15996,2.87936 v 2.87936 h 36.31194 v -5.91869 l -0.31993,-5.75872 -0.4799,-5.75872 -0.63985,-5.59875 -0.79983,-5.59876 -0.95978,-5.43878 -1.11975,-5.43879 -1.43968,-5.11887 -1.43968,-5.11886 -1.59965,-4.9589 -1.75961,-4.79893 -1.75961,-4.63897 -2.07954,-4.479 -2.07953,-4.31905 -2.39947,-4.15907 -2.39947,-3.99911 -2.39946,-3.83915 -2.7194,-3.67918 -2.71939,-3.35926 -2.87936,-3.19928 -2.87936,-3.03933 -3.03933,-2.71939 -3.19929,-2.55944 -3.19929,-2.2395 -3.35925,-2.07954 -3.35925,-1.7596 -3.35926,-1.59965 -3.51922,-1.27971 -3.51921,-0.95979 -3.67919,-0.79982 -3.67918,-0.4799 h -3.67918 -3.83915 l -3.67918,0.4799 -3.679175,0.79982 -3.51922,0.95979 -3.51922,1.27971 -3.35925,1.59965 -3.51922,1.7596 -3.19929,2.07954 -3.19929,2.2395 -3.19929,2.55944 -3.03932,2.71939 -2.87936,3.03933 -2.87936,3.19928 -2.7194,3.35926 -2.71939,3.67918 -2.39947,3.83915 -2.39947,3.99911 -2.39946,4.15907 -2.07954,4.31905 -2.07954,4.479 -1.91957,4.63897 -1.59965,4.79893 -1.59964,4.9589 -1.59965,5.11886 -1.27971,5.11887 -1.11975,5.43879 -0.95979,5.43878 -0.79982,5.59876 -0.63986,5.59875 -0.47989,5.75872 -0.31993,5.75872 v 5.91869 z"
       id="path4456" />
    <path
       inkscape:connector-curvature="0"
       style="fill:#ff3300;fill-opacity:1;fill-rule:evenodd;stroke:none"
       d="m -37.391155,-164.56013 h -1.59964 l -1.43968,0.15996 -1.59965,0.15996 -1.43968,0.31993 -1.43968,0.31993 -1.43968,0.31993 -1.43968,0.47989 -1.27971,0.63986 -1.43968,0.4799 -1.27972,0.79982 -1.27971,0.63986 -1.27972,0.79982 -1.11975,0.79982 -1.11975,0.95979 -1.11975,0.95978 -1.11975,0.95979 -0.95979,1.11975 -0.95979,0.95979 -0.79982,1.27971 -0.95979,1.11975 -0.79982,1.27972 -0.63986,1.27972 -0.63985,1.27971 -0.63986,1.27972 -0.63986,1.43968 -0.31993,1.27971 -0.47989,1.43968 -0.31993,1.43968 -0.31993,1.59965 -0.15996,1.43968 -0.15997,1.59964 v 1.43968 1.59965 l 0.15997,1.59964 0.15996,1.43968 0.31993,1.43968 0.31993,1.59965 0.47989,1.27971 0.31993,1.43968 0.63986,1.43968 0.63986,1.27972 0.63985,1.27971 0.63986,1.27972 0.79982,1.27971 0.95979,1.11976 0.79982,1.11975 0.95979,1.11975 0.95979,1.11975 1.11975,0.95979 1.11975,0.95978 1.11975,0.79982 1.11975,0.95979 1.27972,0.79982 1.27971,0.63986 1.27972,0.63986 1.43968,0.63986 1.27971,0.47989 1.43968,0.47989 1.43968,0.4799 1.43968,0.31993 1.43968,0.31992 1.59965,0.15997 1.43968,0.15996 h 1.59964 1.59965 l 1.43968,-0.15996 1.59964,-0.15997 1.43968,-0.31992 1.43968,-0.31993 1.43968,-0.4799 1.43968,-0.47989 1.43968,-0.47989 1.27972,-0.63986 1.27971,-0.63986 1.27972,-0.63986 1.27971,-0.79982 1.11976,-0.95979 1.11975,-0.79982 1.11975,-0.95978 1.11975,-0.95979 0.95979,-1.11975 0.95978,-1.11975 0.95979,-1.11975 0.79982,-1.11976 0.79982,-1.27971 0.63986,-1.27972 0.79982,-1.27971 0.4799001,-1.27972 0.63986,-1.43968 0.47989,-1.43968 0.31993,-1.27971 0.31993,-1.59965 0.31993,-1.43968 0.15996,-1.43968 0.15996,-1.59964 v -1.59965 -1.43968 l -0.15996,-1.59964 -0.15996,-1.43968 -0.31993,-1.59965 -0.31993,-1.43968 -0.31993,-1.43968 -0.47989,-1.27971 -0.63986,-1.43968 -0.4799001,-1.27972 -0.79982,-1.27971 -0.63986,-1.27972 -0.79982,-1.27972 -0.79982,-1.11975 -0.95979,-1.27971 -0.95978,-0.95979 -0.95979,-1.11975 -1.11975,-0.95979 -1.11975,-0.95978 -1.11975,-0.95979 -1.11976,-0.79982 -1.27971,-0.79982 -1.27972,-0.63986 -1.27971,-0.79982 -1.27972,-0.4799 -1.43968,-0.63986 -1.43968,-0.47989 -1.43968,-0.31993 -1.43968,-0.31993 -1.43968,-0.31993 -1.59964,-0.15996 -1.43968,-0.15996 z"
       id="path4458" />
    <path
       inkscape:connector-curvature="0"
       style="fill:#0066ff;fill-opacity:1;fill-rule:evenodd;stroke:none"
       d="M -69.384045,-9.5545849 V 304.6156 H -8.9174749 V -9.5545849 Z"
       id="path4460" />
    <path
       inkscape:connector-curvature="0"
       style="fill:#00ff00;fill-opacity:1;fill-rule:evenodd;stroke:none"
       d="m 141.12918,62.429415 2.55943,-1.43968 2.55943,-1.27971 2.55944,-1.27972 2.55943,-1.11975 2.71939,-0.95979 2.55943,-0.95978 2.55943,-0.79983 2.55944,-0.79982 2.55943,-0.63986 2.55943,-0.63985 2.55943,-0.31993 2.55943,-0.31993 2.39947,-0.31993 2.39946,-0.15996 h 2.39947 2.2395 l 2.39947,0.15996 2.2395,0.15996 2.07954,0.31993 2.07954,0.4799 2.07954,0.47989 1.91957,0.63986 1.91957,0.79982 1.75961,0.79982 1.75961,0.95979 1.59965,0.95979 1.43968,1.11975 1.43968,1.11975 1.43968,1.27971 1.11975,1.43968 1.11975,1.43968 1.11975,1.59965 0.79982,1.59964 0.79982,1.75961 0.4799,1.75961 0.47989,1.75961 0.31993,1.91957 0.15996,1.75961 0.15997,1.91958 -0.15997,2.07953 -0.15996,1.91958 -0.31993,1.91957 -0.47989,2.07954 -0.4799,1.91957 -0.63985,2.07954 -0.79983,2.07954 -0.95978,2.07954 -0.95979,1.91957 -1.11975,2.07954 -1.27972,2.07953 -1.27971,1.919585 -1.43968,2.07954 -1.59965,1.91957 -1.59964,1.91957 -1.75961,2.07954 -1.91957,1.75961 -1.91958,1.91957 -2.07954,1.91958 -2.07953,1.75961 -2.23951,1.7596 -2.2395,1.59965 -2.39946,1.59964 -2.39947,1.59965 -2.55943,1.59964 18.07598,31.35304 5.11886,-3.03933 4.9589,-3.19929 4.63897,-3.19929 4.63897,-3.35925 4.479,-3.51922 4.15908,-3.51922 3.99911,-3.67918 3.99911,-3.83915 3.67918,-3.67918 3.35926,-3.83915 3.35925,-3.99911 3.03933,-3.99911 2.87936,-3.99911 2.71939,-3.99911 2.39947,-3.99911 2.39947,-4.159085 1.91957,-3.99911 1.91957,-4.15907 1.43968,-3.99912 1.43968,-4.15907 1.11975,-3.99911 0.79983,-3.99911 0.63985,-3.99912 0.4799,-3.83914 0.15996,-3.99911 -0.15996,-3.67919 -0.4799,-3.83914 -0.63985,-3.67919 -0.79983,-3.51921 -1.27971,-3.51922 -1.43968,-3.51922 -1.75961,-3.19929 -1.91957,-3.19929 -2.23951,-3.03932 -2.39946,-2.7194 -2.7194,-2.55943 -2.87936,-2.39947 -3.03932,-2.2395 -3.19929,-1.91957 -3.51922,-1.91957 -3.51922,-1.59965 -3.83915,-1.43968 -3.83914,-1.27972 -3.99911,-0.95978 -4.31904,-0.95979 -4.31904,-0.6398599 -4.31904,-0.47989 -4.63897,-0.31993 h -4.63897 -4.79894 l -4.79893,0.31993 -4.9589,0.47989 -4.9589,0.7998299 -4.95889,0.79982 -5.11887,1.11975 -5.11886,1.27972 -5.11886,1.43968 -5.27883,1.7596 -5.11886,1.91958 -5.27883,2.07954 -5.11886,2.2395 -5.27883,2.39946 -5.11886,2.7194 -5.27883,2.87936 z"
       id="path4462" />
    <path
       inkscape:connector-curvature="0"
       style="fill:#00ff00;fill-opacity:1;fill-rule:evenodd;stroke:none"
       d="m 86.581295,-31.789645 2.55943,-1.43968 2.55944,-1.43968 2.71939,-1.11975 2.55943,-1.27972 2.55943,-0.95978 2.559435,-0.95979 2.7194,-0.79982 2.55943,-0.79982 2.55943,-0.63986 2.55943,-0.4799 2.39947,-0.47989 2.55943,-0.31993 2.39947,-0.31993 2.39947,-0.15996 h 2.39946 2.39947 l 2.2395,0.15996 2.2395,0.31993 2.07954,0.31993 2.07954,0.31993 2.07954,0.63986 1.91957,0.63986 1.91957,0.63985 1.75961,0.79983 1.75961,0.95978 1.59965,0.95979 1.59964,1.11975 1.43968,1.11975 1.27972,1.43968 1.27971,1.27972 1.11975,1.59964 0.95979,1.43968 0.79982,1.75961 0.79983,1.59965 0.63985,1.7596 0.31993,1.91958 0.31993,1.75961 0.31993,1.91957 v 1.91957 1.91958 l -0.31993,1.91957 -0.31993,2.07954 -0.31993,1.9195701 -0.63985,2.07954 -0.63986,1.91957 -0.79982,2.07954 -0.95979,2.07953999 -0.95979,2.07954001 -1.11975,1.91957 -1.27971,2.07954 -1.27972,2.07954 -1.43968,1.91957 -1.59965,2.0795399 -1.59964,1.91957 -1.75961,1.91957 -1.91957,1.91958 -1.91958,1.75961 -1.91957,1.91957 -2.2395,1.75961 -2.07954,1.75961 -2.39947,1.59964 -2.2395,1.75961 -2.55943,1.59965 -2.55943,1.43968 18.23595,31.35303 4.95889,-3.03933 4.9589,-3.03932 4.79894,-3.35925 4.479,-3.35926 4.47901,-3.51922 4.15907,-3.51921 4.15908,-3.67919 3.83914,-3.67918 3.67919,-3.83915 3.51921,-3.83914 3.19929,-3.99911 3.19929,-3.83915 2.87936,-3.99911 2.55943,-4.15908 2.55944,-3.9991099 2.2395,-3.99911 2.07954,-4.15908001 1.7596,-3.99910999 1.59965,-4.15907 1.27971,-3.9991101 1.11976,-4.15908 0.95978,-3.99911 0.63986,-3.83915 0.31993,-3.99911 0.15996,-3.83915 -0.15996,-3.83914 -0.31993,-3.83915 -0.63986,-3.67918 -0.95978,-3.51922 -1.11976,-3.51922 -1.59964,-3.35925 -1.59964,-3.35926 -2.07954,-3.19928 -2.2395,-2.87936 -2.39947,-2.87936 -2.7194,-2.55944 -2.87936,-2.39946 -3.03932,-2.2395 -3.19929,-1.91958 -3.35925,-1.91957 -3.67919,-1.59965 -3.67918,-1.43968 -3.99911,-1.27971 -3.99911,-0.95979 -4.15908,-0.79982 -4.31904,-0.79982 -4.479,-0.4799 -4.63897,-0.15996 -4.63897,-0.15997 -4.63897,0.15997 -4.9589,0.31993 -4.79893,0.47989 -4.9589,0.63986 -5.11886,0.95979 -5.11886,1.11975 -5.11887,1.27971 -5.11886,1.43968 -5.118865,1.59965 -5.27883,1.91957 -5.27883,2.07954 -5.11886,2.2395 -5.27883,2.55943 -5.11886,2.55943 -5.11886,2.87936 z"
       id="path4464" />
    <path
       inkscape:connector-curvature="0"
       style="fill:#ff3300;fill-opacity:1;fill-rule:evenodd;stroke:none"
       d="m 116.17473,55.870875 -0.79983,-1.27972 -0.95978,-1.27971 -0.95979,-1.27972 -0.95979,-1.11975 -0.95978,-1.11975 -1.11975,-1.11975 -1.11975,-0.95979 -1.11976,-0.79982 -1.11975,-0.95979 -1.27971,-0.79982 -1.27972,-0.63986 -1.27971,-0.79982 -1.27972,-0.47989 -1.43968,-0.63986 -1.279725,-0.47989 -1.43968,-0.31993 -1.43968,-0.31993 -1.43968,-0.31993 -1.43968,-0.15996 -1.43968,-0.15997 -1.43968,-0.15996 h -1.43968 l -1.43968,0.15996 -1.43968,0.15997 -1.43968,0.15996 -1.43968,0.31993 -1.43968,0.31993 -1.43968,0.47989 -1.43968,0.4799 -1.43968,0.63985 -1.43968,0.63986 -1.27971,0.79982 -1.27972,0.79983 -1.27971,0.79982 -1.27972,0.95978 -1.11975,0.95979 -1.11975,0.95979 -0.95979,1.11975 -0.95978,1.11975 -0.95979,1.11975 -0.95979,1.11975 -0.63986,1.27972 -0.79982,1.27971 -0.63986,1.27972 -0.63985,1.27972 -0.4799,1.43968 -0.47989,1.27971 -0.47989,1.43968 -0.31993,1.43968 -0.31993,1.43968 -0.15997,1.43968 -0.15996,1.43968 v 1.43968 1.43968 1.43968 l 0.15996,1.43968 0.31993,1.43968 0.15997,1.59965 0.47989,1.43968 0.31993,1.43968 0.63986,1.27971 0.47989,1.43968 0.79982,1.43968 0.63986,1.43968 0.79982,1.27972 0.95979,1.27971 0.79982,1.11975 1.11975,1.27972 0.95979,0.95979 1.11975,1.11975 1.11975,0.95978 1.11975,0.95979 1.11975,0.79982 1.27972,0.79983 1.27972,0.79982 1.27971,0.63986 1.27972,0.63985 1.43968,0.4799 1.27971,0.47989 1.43968,0.479895 1.43968,0.31993 1.43968,0.31993 1.43968,0.15997 1.43968,0.15996 h 1.43968 1.43968 1.43968 l 1.43968,-0.15996 1.43968,-0.31993 1.43968,-0.15997 1.43968,-0.47989 1.43968,-0.319935 1.439685,-0.63986 1.43968,-0.47989 1.27972,-0.63986 1.43968,-0.79982 1.27972,-0.79982 1.27971,-0.95979 1.27972,-0.79982 1.11975,-0.95979 1.11975,-1.11975 0.95979,-0.95979 0.95978,-1.11975 0.95979,-1.27971 0.79982,-1.11975 0.79982,-1.27972 0.79983,-1.27972 0.63985,-1.27971 0.63986,-1.27972 0.47989,-1.27971 0.4799,-1.43968 0.47989,-1.43968 0.31993,-1.27972 0.31993,-1.43968 0.15996,-1.43968 0.15997,-1.43968 v -1.59964 -1.43968 -1.43968 l -0.15997,-1.43968 -0.31993,-1.43968 -0.15996,-1.43968 -0.47989,-1.43968 -0.4799,-1.43968 -0.47989,-1.43968 -0.47989,-1.43968 -0.79983,-1.43968 z"
       id="path4466" />
    <path
       inkscape:connector-curvature="0"
       style="fill:#00ff00;fill-opacity:1;fill-rule:evenodd;stroke:none"
       d="m -185.51823,31.076385 -2.55943,-1.43968 -2.39947,-1.59964 -2.39947,-1.59965 -2.39946,-1.75961 -2.07954,-1.75961 -2.2395,-1.75961 -1.91958,-1.7596 -1.91957,-1.91958 -1.91957,-1.91957 -1.75961,-1.91957 -1.59965,-1.91958 -1.59964,-2.0795399 -1.43968,-1.91957 -1.27972,-2.07954 -1.27971,-1.91957 -1.11975,-2.07954 -0.95979,-2.07954001 -0.95979,-2.07952999 -0.79982,-1.91958 -0.63986,-2.07954 -0.47989,-2.07953 -0.47989,-1.9195801 -0.31993,-2.07954 -0.15997,-1.91957 -0.15996,-1.91957 0.15996,-1.91958 0.15997,-1.91957 0.31993,-1.75961 0.47989,-1.91957 0.47989,-1.59965 0.79983,-1.7596 0.79982,-1.59965 0.95978,-1.59964 1.11976,-1.59965 1.27971,-1.27971 1.27972,-1.27972 1.43968,-1.27972 1.59964,-1.11975 1.59965,-0.95978 1.75961,-0.95979 1.7596,-0.79982 1.91958,-0.63986 1.91957,-0.63986 2.07954,-0.63986 2.07954,-0.31992 2.07953,-0.31993 2.23951,-0.31993 2.2395,-0.15997 h 2.39947 2.39946 l 2.39947,0.15997 2.39947,0.31993 2.55943,0.31993 2.39946,0.47989 2.55944,0.47989 2.55943,0.63986 2.71939,0.79982 2.55943,0.79982 2.55944,0.95979 2.55943,0.95979 2.71939,1.27971 2.55943,1.11975 2.55943,1.43968 2.55944,1.43969 18.23594,-31.35304 -5.27882,-2.87936 -5.11887,-2.71939 -5.27882,-2.55943 -5.11887,-2.23951 -5.27882,-2.07953 -5.11886,-1.91958 -5.27883,-1.59964 -5.11886,-1.43968 -5.11887,-1.27972 -5.11886,-1.11975 -4.9589,-0.95979 -5.11886,-0.63985 -4.79893,-0.4799 -4.79894,-0.31993 -4.79893,-0.15996 -4.63897,0.15996 -4.63897,0.15997 -4.31904,0.47989 -4.31904,0.79982 -4.31904,0.79983 -3.99911,1.11975 -3.83915,1.11975 -3.83914,1.43968 -3.51922,1.75961 -3.51922,1.75961 -3.19929,1.91957 -3.03932,2.2395 -2.87936,2.39947 -2.7194,2.55943 -2.39947,2.87936 -2.2395,2.87936 -1.91957,3.19929 -1.75961,3.35925 -1.43968,3.35926 -1.27972,3.51921 -0.95978,3.51922 -0.63986,3.67918 -0.31993,3.83915 -0.15996,3.83915 0.15996,3.83915 0.47989,3.99911 0.63986,3.83914 0.79982,3.99911 1.11975,4.15908 1.27972,3.9991101 1.59964,4.15908 1.91958,3.99910999 1.91957,4.15907001 2.2395,3.99912 2.55943,3.9991099 2.7194,4.15907 2.87936,3.99911 3.03933,3.83915 3.35925,3.99911 3.35925,3.83915 3.67918,3.83915 3.99912,3.67918 3.99911,3.67918 4.15907,3.51922 4.47901,3.51922 4.479,3.35925 4.79894,3.35925 4.95889,3.03933 5.11887,3.03932 z"
       id="path4468" />
    <path
       inkscape:connector-curvature="0"
       style="fill:#00ff00;fill-opacity:1;fill-rule:evenodd;stroke:none"
       d="m -240.06611,125.45542 -2.55943,-1.59965 -2.39947,-1.59964 -2.39946,-1.59965 -2.23951,-1.59964 -2.2395,-1.75961 -2.07954,-1.75961 -2.07953,-1.91957 -1.91958,-1.91958 -1.75961,-1.7596 -1.75961,-2.07954 -1.7596,-1.91958 -1.43968,-1.91957 -1.43968,-2.07954 -1.43968,-1.91957 -1.11976,-2.079545 -1.11975,-2.07954 -1.11975,-1.91957 -0.79982,-2.07954 -0.79982,-2.07954 -0.79982,-2.07953 -0.4799,-1.91958 -0.47989,-2.07953 -0.31993,-1.91958 -0.15996,-1.91957 v -2.07954 -1.91957 l 0.15996,-1.75961 0.31993,-1.91958 0.47989,-1.7596 0.63986,-1.75961 0.63986,-1.75961 0.95978,-1.59965 0.95979,-1.59964 1.11975,-1.43968 1.11975,-1.43968 1.43968,-1.27972 1.43968,-1.11975 1.43968,-1.11975 1.59965,-1.11975 1.75961,-0.79982 1.75961,-0.79983 1.91957,-0.79982 1.91957,-0.63986 2.07954,-0.47989 2.07954,-0.47989 2.2395,-0.31993 2.07954,-0.15997 2.39947,-0.15996 h 2.2395 2.39946 l 2.39947,0.15996 2.55943,0.15997 2.39947,0.47989 2.55943,0.31993 2.55943,0.63986 2.55943,0.63986 2.55943,0.63985 2.55944,0.95979 2.55943,0.95979 2.71939,0.95978 2.55943,1.11976 2.55944,1.27971 2.55943,1.27972 2.71939,1.43968 18.07599,-31.35304 -5.11887,-2.87936 -5.27882,-2.71939 -5.11887,-2.39947 -5.27882,-2.2395 -5.11887,-2.07954 -5.27882,-1.91957 -5.11887,-1.75961 -5.27882,-1.43968 -5.11886,-1.27972 -5.11887,-1.11975 -4.9589,-0.79982 -4.95889,-0.7998199 -4.9589,-0.4799 -4.79893,-0.31992 h -4.79894 -4.63897 l -4.479,0.31992 -4.47901,0.4799 -4.31904,0.6398599 -4.15906,0.95978 -4.15908,0.95979 -3.83915,1.27972 -3.83914,1.43968 -3.51922,1.59964 -3.35926,1.75961 -3.35925,2.07954 -3.03932,2.2395 -2.87936,2.39947 -2.55943,2.55943 -2.55944,2.71939 -2.2395,3.03933 -1.91957,3.19929 -1.75961,3.19929 -1.43968,3.51921 -1.11975,3.51922 -0.95979,3.51922 -0.63986,3.67918 -0.47989,3.67918 v 3.83915 l 0.15996,3.99911 0.31993,3.83915 0.63986,3.99911 0.79982,3.99911 1.11975,3.99911 1.43968,4.15908 1.59965,3.99911 1.75961,4.15908 2.07954,3.99911 2.2395,4.159075 2.39947,3.99911 2.71939,3.99912 2.87936,3.99911 3.03933,3.99911 3.35925,3.99911 3.51922,3.83915 3.67918,3.67918 3.83915,3.83915 3.99911,3.67918 4.31904,3.51922 4.31903,3.51921 4.63897,3.35926 4.79893,3.19929 4.79894,3.19929 5.11886,3.03932 z"
       id="path4470" />
    <path
       inkscape:connector-curvature="0"
       style="fill:#ff3300;fill-opacity:1;fill-rule:evenodd;stroke:none"
       d="m -178.79972,55.870875 -0.79983,1.27972 -0.63985,1.43968 -0.63986,1.43968 -0.47989,1.43968 -0.4799,1.43968 -0.31993,1.43968 -0.31993,1.43968 -0.15996,1.43968 -0.15996,1.43968 -0.15997,1.43968 v 1.43968 l 0.15997,1.59964 v 1.43968 l 0.31992,1.43968 0.15997,1.43968 0.31993,1.27972 0.47989,1.43968 0.47989,1.43968 0.4799,1.27971 0.63986,1.27972 0.63985,1.27971 0.79983,1.27972 0.79982,1.27972 0.79982,1.11975 0.95979,1.27971 0.95978,1.11975 0.95979,0.95979 1.11975,1.11975 1.11975,0.95979 1.27972,0.79982 1.27971,0.95979 1.27972,0.79982 1.43968,0.79982 1.27972,0.63986 1.43968,0.47989 1.43968,0.63986 1.43968,0.319935 1.43968,0.47989 1.43968,0.15997 1.43968,0.31993 1.43968,0.15996 h 1.43968 1.59964 1.43968 l 1.43968,-0.15996 1.43968,-0.15997 1.43968,-0.31993 1.27972,-0.31993 1.43968,-0.479895 1.43968,-0.47989 1.27971,-0.4799 1.27972,-0.63985 1.27971,-0.63986 1.27972,-0.79982 1.27971,-0.79983 1.11976,-0.79982 1.27971,-0.95979 1.11975,-0.95978 0.95979,-1.11975 1.11975,-0.95979 0.95979,-1.27972 0.79982,-1.11975 0.95979,-1.27971 0.79982,-1.27972 0.79982,-1.43968 0.63986,-1.43968 0.63986,-1.43968 0.47989,-1.27971 0.47989,-1.43968 0.31993,-1.43968 0.31993,-1.59965 0.15996,-1.43968 0.15997,-1.43968 v -1.43968 -1.43968 -1.43968 l -0.15997,-1.43968 -0.15996,-1.43968 -0.31993,-1.43968 -0.31993,-1.43968 -0.31993,-1.43968 -0.47989,-1.27971 -0.63986,-1.43968 -0.63986,-1.27972 -0.63985,-1.27972 -0.63986,-1.27971 -0.79982,-1.27972 -0.95979,-1.11975 -0.79982,-1.11975 -0.95979,-1.11975 -1.11975,-1.11975 -1.11975,-0.95979 -1.11975,-0.95979 -1.27972,-0.95978 -1.11975,-0.79982 -1.43968,-0.79983 -1.27971,-0.79982 -1.43968,-0.63986 -1.43968,-0.63985 -1.43968,-0.4799 -1.27972,-0.47989 -1.59965,-0.31993 -1.43968,-0.31993 -1.43968,-0.15996 -1.43968,-0.15997 -1.43968,-0.15996 h -1.43968 l -1.43968,0.15996 -1.43968,0.15997 -1.43968,0.15996 -1.43968,0.31993 -1.43968,0.31993 -1.43968,0.31993 -1.27971,0.47989 -1.43968,0.63986 -1.27972,0.47989 -1.27971,0.79982 -1.27972,0.63986 -1.11975,0.79982 -1.27972,0.95979 -1.11975,0.79982 -1.11975,0.95979 -1.11975,1.11975 -0.95979,1.11975 -0.95978,1.11975 -0.95979,1.27972 -0.79982,1.27971 z"
       id="path4472" />
  </g>
</svg>
